<?xml version="1.0" encoding="utf-8"?>
<!-- Svg Vector Icons : http://www.onlinewebfonts.com/icon -->
<!DOCTYPE svg PUBLIC "-//W3C//DTD SVG 1.1//EN" "http://www.w3.org/Graphics/SVG/1.1/DTD/svg11.dtd">
<svg version="1.1" xmlns="http://www.w3.org/2000/svg" xmlns:xlink="http://www.w3.org/1999/xlink" x="0px" y="0px" viewBox="0 0 256 256" enable-background="new 0 0 256 256" xml:space="preserve">
<metadata> Svg Vector Icons : http://www.onlinewebfonts.com/icon </metadata>
<g><g><g><g id="ampersand"><path fill="#000000" d="M128.7,246c-19,0-36.4-6.6-49.7-19.9c-26.5-26.5-26.5-69.7,0-96.1l61.5-58.5c3.4-3.4,5.4-8.1,5.4-13.2c0-5-2-9.7-5.5-13.3c-7.3-7.3-20.9-7.3-28.3,0c-7.3,7.3-7.3,19.2,0,26.6L91.3,92.4c-18.8-18.8-18.8-49.5,0-68.3c18.9-18.9,51.1-18.8,70,0c9.2,9.1,14.2,21.3,14.2,34.2c0,12.9-5,25-14.2,34.1L99.8,151c-14.9,14.9-14.9,39.3,0.1,54.3c15,15,41.1,15,56.1,0c15-15,15-39.4,0-54.4l-10.5-10.4l32.1-32.1l19.2,20.9l-12.3,12.3c16.7,26.3,13.7,61.6-7.6,84.6C163.6,239.4,146.1,246,128.7,246L128.7,246z"/></g></g><g></g><g></g><g></g><g></g><g></g><g></g><g></g><g></g><g></g><g></g><g></g><g></g><g></g><g></g><g></g></g></g>
</svg>